<?xml version="1.0" encoding="UTF-8"?>
<svg width="183" height="255" version="1.1" viewBox="0 0 48.419 67.469" xmlns="http://www.w3.org/2000/svg" xmlns:cc="http://creativecommons.org/ns#" xmlns:dc="http://purl.org/dc/elements/1.1/" xmlns:rdf="http://www.w3.org/1999/02/22-rdf-syntax-ns#">
<metadata>
<rdf:RDF>
<cc:Work rdf:about="">
<dc:format>image/svg+xml</dc:format>
<dc:type rdf:resource="http://purl.org/dc/dcmitype/StillImage"/>
<dc:title/>
</cc:Work>
</rdf:RDF>
</metadata>
<g transform="translate(0 -229.53)">
<path transform="matrix(.26458 0 0 .26458 0 229.53)" d="m0 0v254.64h182.86v-254.64h-182.86z" opacity=".051"/>
<g transform="matrix(.26458 0 0 .26458 -49.779 181.55)" fill-opacity=".062176">
<g fill-opacity=".062176">
<g fill-opacity=".062176">
<g fill-opacity=".062176" stroke-width=".33333">
<path d="m305.54 313.21c-2.0803-2.068-5.4397-2.068-7.52 0l-12.267 12.267-22.88-22.88c-2.0803-2.068-5.4397-2.068-7.52 0l-37.333 37.333c-2.062 2.1033-2.029 5.48 0.0743 7.542 0.97833 0.95934 2.2887 1.5053 3.659 1.5247h106.67c2.9453 0.017 5.347-2.3567 5.3643-5.3023 8e-3 -1.433-0.56034-2.8087-1.5777-3.8177z"/>
<circle cx="291.09" cy="279.67" r="16"/>
</g>
</g>
</g>
</g>
</g>
</svg>
